<?xml version="1.0" encoding="utf-8"?>
<!-- Generator: Adobe Illustrator 25.2.1, SVG Export Plug-In . SVG Version: 6.00 Build 0)  -->
<svg version="1.1" id="Layer_1" xmlns="http://www.w3.org/2000/svg" xmlns:xlink="http://www.w3.org/1999/xlink" x="0px" y="0px"
	 viewBox="0 0 311.81 141.73" style="enable-background:new 0 0 311.81 141.73;" xml:space="preserve">
<style type="text/css">
	.st0{fill:#3A3A3A;}
	.st1{fill:#4063D8;}
	.st2{fill:#CB3C33;}
	.st3{fill:#3F982E;}
	.st4{fill:#9558B2;}
	.st5{display:none;}
	.st6{display:inline;}
	.st7{fill:#F4F4F4;}
	.st8{fill:none;stroke:#F4F4F4;stroke-width:2;stroke-miterlimit:10;}
</style>
<g id="logo_light">
	<path id="background_1_" class="st0" d="M254.44,123.15H53.9c-19.18,0-34.73-15.55-34.73-34.73V55.89
		c0-19.18,15.55-34.73,34.73-34.73h200.54c19.18,0,34.73,15.55,34.73,34.73v32.54C289.17,107.6,273.62,123.15,254.44,123.15z"/>
	<g id="operators_2_">
		<g>
			<g>
				<g>
					<path class="st1" d="M83.67,78.22c-1.36,0-2.43-0.41-3.21-1.23s-1.17-1.91-1.17-3.27c0-1.36,0.39-2.43,1.17-3.21
						s1.85-1.17,3.21-1.17s2.43,0.39,3.21,1.17s1.17,1.85,1.17,3.21s-0.39,2.45-1.17,3.27S85.03,78.22,83.67,78.22z"/>
					<path class="st2" d="M130.77,101.32c-5.52-1.4-9.7-4.02-12.54-7.86c-2.84-3.84-4.26-8.82-4.26-14.94v-12
						c0-4.08,0.63-7.66,1.89-10.74c1.26-3.08,3.14-5.63,5.64-7.65s5.59-3.49,9.27-4.41v3c-2.88,0.72-5.33,1.97-7.35,3.75
						s-3.55,4.02-4.59,6.72s-1.56,5.81-1.56,9.33v12c0,3.44,0.53,6.52,1.59,9.24s2.6,4.98,4.62,6.78c2.02,1.8,4.45,3.06,7.29,3.78
						V101.32z"/>
					<path class="st3" d="M190.17,88.12v-12.6h-12v-2.7h12v-12.6h3v12.6h12v2.7h-12v12.6H190.17z"/>
					<path class="st4" d="M252.57,101.32v-3c2.84-0.72,5.27-1.98,7.29-3.78c2.02-1.8,3.56-4.06,4.62-6.78s1.59-5.8,1.59-9.24v-12
						c0-3.52-0.53-6.63-1.59-9.33s-2.59-4.94-4.59-6.72c-2-1.78-4.44-3.03-7.32-3.75v-3c3.68,0.92,6.77,2.39,9.27,4.41
						s4.38,4.57,5.64,7.65c1.26,3.08,1.89,6.66,1.89,10.74v12c0,6.12-1.42,11.1-4.26,14.94C262.27,97.3,258.09,99.92,252.57,101.32z
						"/>
				</g>
			</g>
		</g>
		<path class="st1" d="M83.67,78.22c-1.36,0-2.43-0.41-3.21-1.23s-1.17-1.91-1.17-3.27c0-1.36,0.39-2.43,1.17-3.21
			s1.85-1.17,3.21-1.17s2.43,0.39,3.21,1.17s1.17,1.85,1.17,3.21s-0.39,2.45-1.17,3.27S85.03,78.22,83.67,78.22z"/>
		<path class="st2" d="M130.77,101.32c-5.52-1.4-9.7-4.02-12.54-7.86c-2.84-3.84-4.26-8.82-4.26-14.94v-12
			c0-4.08,0.63-7.66,1.89-10.74c1.26-3.08,3.14-5.63,5.64-7.65s5.59-3.49,9.27-4.41v3c-2.88,0.72-5.33,1.97-7.35,3.75
			s-3.55,4.02-4.59,6.72s-1.56,5.81-1.56,9.33v12c0,3.44,0.53,6.52,1.59,9.24s2.6,4.98,4.62,6.78c2.02,1.8,4.45,3.06,7.29,3.78
			V101.32z"/>
		<path class="st3" d="M190.17,88.12v-12.6h-12v-2.7h12v-12.6h3v12.6h12v2.7h-12v12.6H190.17z"/>
		<path class="st4" d="M252.57,101.32v-3c2.84-0.72,5.27-1.98,7.29-3.78c2.02-1.8,3.56-4.06,4.62-6.78s1.59-5.8,1.59-9.24v-12
			c0-3.52-0.53-6.63-1.59-9.33s-2.59-4.94-4.59-6.72c-2-1.78-4.44-3.03-7.32-3.75v-3c3.68,0.92,6.77,2.39,9.27,4.41
			s4.38,4.57,5.64,7.65c1.26,3.08,1.89,6.66,1.89,10.74v12c0,6.12-1.42,11.1-4.26,14.94C262.27,97.3,258.09,99.92,252.57,101.32z"/>
	</g>
	<g id="markers_2_">
		<g class="st5">
			<g class="st6">
				<g>
					<path class="st7" d="M48.39,57.78c-1.41,0-2.68-0.32-3.8-0.97s-2.02-1.54-2.66-2.66s-0.97-2.4-0.97-3.8
						c0-1.42,0.32-2.7,0.97-3.82s1.54-2,2.66-2.65s2.4-0.97,3.8-0.97c1.42,0,2.7,0.32,3.82,0.97s2,1.53,2.65,2.65
						c0.65,1.12,0.97,2.39,0.97,3.82c0,1.41-0.32,2.68-0.97,3.8s-1.53,2.02-2.65,2.66C51.09,57.46,49.81,57.78,48.39,57.78z"/>
					<path class="st7" d="M41.19,79.54v-14.4h14.4v14.4H41.19z"/>
					<path class="st7" d="M40.95,101.54l7.44-14.64l7.44,14.64H40.95z"/>
				</g>
			</g>
		</g>
		<path class="st7" d="M48.39,57.78c-1.41,0-2.68-0.32-3.8-0.97s-2.02-1.54-2.66-2.66s-0.97-2.4-0.97-3.8c0-1.42,0.32-2.7,0.97-3.82
			s1.54-2,2.66-2.65s2.4-0.97,3.8-0.97c1.42,0,2.7,0.32,3.82,0.97s2,1.53,2.65,2.65c0.65,1.12,0.97,2.39,0.97,3.82
			c0,1.41-0.32,2.68-0.97,3.8s-1.53,2.02-2.65,2.66C51.09,57.46,49.81,57.78,48.39,57.78z"/>
		<path class="st7" d="M41.19,79.54v-14.4h14.4v14.4H41.19z"/>
		<path class="st7" d="M40.95,101.54l7.44-14.64l7.44,14.64H40.95z"/>
	</g>
	<g id="contour_2_">
		<g>
			<path class="st8" d="M157.73,53.57c3.83-1.63,8.28,0.23,9.93,4.12c1.35,3.18,0.43,6.73-2.03,8.83c-0.02,0.01-0.03,0.01-0.05,0.03
				c-0.25,0.17-0.49,0.35-0.72,0.53c-3.14,2.5-5.11,6.15-5.57,10.08c-0.04,0.33-0.08,0.67-0.09,1c-0.61,5.23-3.88,9.95-9.01,12.12
				c-7.67,3.25-16.56-0.44-19.87-8.24s0.22-16.76,7.89-20.01c1.74-0.74,3.56-1.12,5.35-1.18c0.14,0,0.28,0,0.41-0.01
				c1.83-0.04,3.68-0.42,5.47-1.17c2.12-0.9,3.91-2.22,5.34-3.85c0,0,0-0.01,0.01-0.02c0.14-0.15,0.28-0.31,0.4-0.47
				c0.02-0.03,0.04-0.05,0.05-0.06C155.94,54.57,156.77,53.97,157.73,53.57z"/>
			<circle class="st8" cx="160.87" cy="60.95" r="2.75"/>
			<path class="st8" d="M140.87,79.53c-1.58-1.86-1.18-4.81,0.9-6.58c2.08-1.77,6.64-3.44,8.23-1.58c1.58,1.86-0.41,6.56-2.49,8.33
				S142.45,81.39,140.87,79.53z"/>
			<path class="st8" d="M156.77,69.06c-0.02,0.57-0.15,1.1-0.37,1.58c-0.93,2.11-1.4,4.4-1.64,6.69c-0.26,2.39-1.35,4.7-3.26,6.47
				c-4.46,4.12-11.58,3.54-15.3-1.49c-2.76-3.73-2.64-9.02,0.32-12.61c2.2-2.67,5.34-3.91,8.42-3.78c1.92,0.08,3.89-0.06,5.62-0.91
				c0.62-0.31,1.33-0.47,2.08-0.44C155.02,64.68,156.87,66.69,156.77,69.06z"/>
		</g>
	</g>
	<g id="data_2_">
		<g>
			<circle class="st7" cx="251.4" cy="61.57" r="2.75"/>
			<circle class="st7" cx="222.98" cy="71.28" r="2.75"/>
			<circle class="st7" cx="248.68" cy="56.86" r="2.75"/>
			<circle class="st7" cx="235.82" cy="63.18" r="2.75"/>
			<circle class="st7" cx="237.82" cy="71.18" r="2.75"/>
			<circle class="st7" cx="234.47" cy="76.58" r="2.75"/>
			<circle class="st7" cx="220.22" cy="79.58" r="2.75"/>
			<circle class="st7" cx="233.38" cy="87.59" r="2.75"/>
			<circle class="st7" cx="240.75" cy="82.49" r="2.75"/>
			<circle class="st7" cx="231.7" cy="79.33" r="2.75"/>
			<circle class="st7" cx="230.7" cy="74.82" r="2.75"/>
		</g>
	</g>
</g>
</svg>
